<svg width="41" height="40" viewBox="0 0 41 40" fill="none" xmlns="http://www.w3.org/2000/svg">
<path fill-rule="evenodd" clip-rule="evenodd" d="M20.0045 9.746C14.3289 9.746 9.75117 14.326 9.75117 19.9993C9.75117 25.6749 14.3289 30.2549 20.0045 30.2549C25.6801 30.2549 30.2578 25.6749 30.2578 19.9993C30.2578 14.326 25.6801 9.746 20.0045 9.746ZM20.0045 26.666C16.3378 26.666 13.3378 23.6771 13.3378 19.9993C13.3378 16.3238 16.3289 13.3327 20.0045 13.3327C23.6801 13.3327 26.6712 16.3238 26.6712 19.9993C26.6712 23.6771 23.6712 26.666 20.0045 26.666ZM33.0689 9.32822C33.0689 10.6571 31.9978 11.7193 30.6778 11.7193C29.3467 11.7193 28.2867 10.6482 28.2867 9.32822C28.2867 8.00822 29.3556 6.93489 30.6778 6.93489C31.9978 6.93489 33.0689 8.00822 33.0689 9.32822ZM39.8601 11.7549C39.7067 8.55044 38.9756 5.71489 36.6289 3.37489C34.2912 1.03711 31.4534 0.306 28.2512 0.146C24.9489 -0.0428887 15.0512 -0.0428887 11.7512 0.146C8.55561 0.297111 5.71783 1.02822 3.37117 3.366C1.0245 5.706 0.302277 8.54156 0.142277 11.7438C-0.0466119 15.0482 -0.0466119 24.9438 0.142277 28.246C0.291166 31.4504 1.0245 34.286 3.37117 36.626C5.71783 38.9616 8.54672 39.6949 11.7512 39.8549C15.0512 40.0438 24.9489 40.0438 28.2512 39.8549C31.4534 39.7016 34.2912 38.9704 36.6289 36.626C38.9667 34.286 39.6978 31.4504 39.8601 28.246C40.0489 24.9438 40.0489 15.0571 39.8601 11.7549ZM35.5956 31.7882C34.8978 33.5371 33.5512 34.886 31.7934 35.5904C29.1601 36.6349 22.9156 36.3927 20.0045 36.3927C17.0956 36.3927 10.8401 36.626 8.21561 35.5904C6.46672 34.8927 5.12005 33.546 4.41561 31.7882C3.37117 29.1549 3.61339 22.9104 3.61339 19.9993C3.61339 17.0927 3.38005 10.8349 4.41561 8.21267C5.11117 6.46156 6.45783 5.11489 8.21561 4.41044C10.8489 3.366 17.0956 3.606 20.0045 3.606C22.9156 3.606 29.1689 3.37489 31.7934 4.41044C33.5423 5.106 34.8889 6.45489 35.5956 8.21267C36.6378 10.8438 36.3978 17.0927 36.3978 19.9993C36.3978 22.9104 36.6378 29.1638 35.5956 31.7882Z" fill="#142032"/>
<mask id="mask0_623_5593" style="mask-type:alpha" maskUnits="userSpaceOnUse" x="0" y="0" width="41" height="40">
<path fill-rule="evenodd" clip-rule="evenodd" d="M20.0045 9.746C14.3289 9.746 9.75117 14.326 9.75117 19.9993C9.75117 25.6749 14.3289 30.2549 20.0045 30.2549C25.6801 30.2549 30.2578 25.6749 30.2578 19.9993C30.2578 14.326 25.6801 9.746 20.0045 9.746ZM20.0045 26.666C16.3378 26.666 13.3378 23.6771 13.3378 19.9993C13.3378 16.3238 16.3289 13.3327 20.0045 13.3327C23.6801 13.3327 26.6712 16.3238 26.6712 19.9993C26.6712 23.6771 23.6712 26.666 20.0045 26.666ZM33.0689 9.32822C33.0689 10.6571 31.9978 11.7193 30.6778 11.7193C29.3467 11.7193 28.2867 10.6482 28.2867 9.32822C28.2867 8.00822 29.3556 6.93489 30.6778 6.93489C31.9978 6.93489 33.0689 8.00822 33.0689 9.32822ZM39.8601 11.7549C39.7067 8.55044 38.9756 5.71489 36.6289 3.37489C34.2912 1.03711 31.4534 0.306 28.2512 0.146C24.9489 -0.0428887 15.0512 -0.0428887 11.7512 0.146C8.55561 0.297111 5.71783 1.02822 3.37117 3.366C1.0245 5.706 0.302277 8.54156 0.142277 11.7438C-0.0466119 15.0482 -0.0466119 24.9438 0.142277 28.246C0.291166 31.4504 1.0245 34.286 3.37117 36.626C5.71783 38.9616 8.54672 39.6949 11.7512 39.8549C15.0512 40.0438 24.9489 40.0438 28.2512 39.8549C31.4534 39.7016 34.2912 38.9704 36.6289 36.626C38.9667 34.286 39.6978 31.4504 39.8601 28.246C40.0489 24.9438 40.0489 15.0571 39.8601 11.7549ZM35.5956 31.7882C34.8978 33.5371 33.5512 34.886 31.7934 35.5904C29.1601 36.6349 22.9156 36.3927 20.0045 36.3927C17.0956 36.3927 10.8401 36.626 8.21561 35.5904C6.46672 34.8927 5.12005 33.546 4.41561 31.7882C3.37117 29.1549 3.61339 22.9104 3.61339 19.9993C3.61339 17.0927 3.38005 10.8349 4.41561 8.21267C5.11117 6.46156 6.45783 5.11489 8.21561 4.41044C10.8489 3.366 17.0956 3.606 20.0045 3.606C22.9156 3.606 29.1689 3.37489 31.7934 4.41044C33.5423 5.106 34.8889 6.45489 35.5956 8.21267C36.6378 10.8438 36.3978 17.0927 36.3978 19.9993C36.3978 22.9104 36.6378 29.1638 35.5956 31.7882Z" fill="white"/>
</mask>
<g mask="url(#mask0_623_5593)">
<rect x="-28.8889" y="-31.1111" width="106.667" height="106.667" fill="#142032"/>
</g>
</svg>
