<svg width="40" height="40" viewBox="0 0 40 40" fill="none" xmlns="http://www.w3.org/2000/svg">
<path d="M22.9918 12.6529H25V9.15492C24.6535 9.10725 23.462 9 22.0742 9C19.1787 9 17.1952 10.8214 17.1952 14.1691V17.25H14V21.1605H17.1952V31H21.1127V21.1614H24.1787L24.6654 17.2509H21.1118V14.5568C21.1127 13.4266 21.417 12.6529 22.9918 12.6529Z" fill="#142032"/>
<mask id="path-2-inside-1_623_5635" fill="white">
<path fill-rule="evenodd" clip-rule="evenodd" d="M38.991 34.3611C38.141 36.4917 36.5004 38.1349 34.3591 38.9931C31.1511 40.2655 23.544 39.9704 19.9976 39.9704C16.4539 39.9704 8.8333 40.2546 5.63615 38.9931C3.50562 38.143 1.86508 36.5025 1.00691 34.3611C-0.265454 31.1532 0.0296262 23.5461 0.0296262 19.9997C0.0296262 16.4587 -0.254625 8.83537 1.00691 5.64092C1.85425 3.50768 3.49479 1.86715 5.63615 1.00898C8.84413 -0.263386 16.4539 0.0289865 19.9976 0.0289865C23.544 0.0289865 31.1619 -0.252558 34.3591 1.00898C36.4896 1.85632 38.1301 3.49956 38.991 5.64092C40.2607 8.8462 39.9683 16.4587 39.9683 19.9997C39.9683 23.5461 40.2607 31.164 38.991 34.3611Z"/>
</mask>
<path d="M34.3591 38.9931L35.6863 42.3395L35.6983 42.3347L34.3591 38.9931ZM5.63615 38.9931L4.30206 42.3368L4.3148 42.3418L5.63615 38.9931ZM1.00691 34.3611L-2.33951 35.6884L-2.33473 35.7003L1.00691 34.3611ZM1.00691 5.64092L-2.33882 4.31197L-2.34144 4.31861L1.00691 5.64092ZM5.63615 1.00898L4.30888 -2.33744L4.29696 -2.33266L5.63615 1.00898ZM34.3591 1.00898L35.6895 -2.33618L35.6804 -2.33976L34.3591 1.00898ZM38.991 5.64092L42.338 4.31513L42.3346 4.3066L42.3312 4.29809L38.991 5.64092ZM35.6473 33.0271C35.1636 34.2396 34.2491 35.1588 33.0199 35.6514L35.6983 42.3347C38.7518 41.111 41.1184 38.7438 42.3347 35.6952L35.6473 33.0271ZM33.0318 35.6467C32.0968 36.0175 30.0077 36.2732 27.1935 36.3606C24.516 36.4437 21.9104 36.3704 19.9976 36.3704V43.5704C21.6312 43.5704 24.6023 43.6445 27.417 43.5571C30.0949 43.474 33.4133 43.241 35.6863 42.3395L33.0318 35.6467ZM19.9976 36.3704C18.0928 36.3704 15.4771 36.441 12.8004 36.3566C9.98315 36.2678 7.89036 36.0124 6.95749 35.6444L4.3148 42.3418C6.57909 43.2353 9.89519 43.4686 12.5735 43.553C15.3923 43.6419 18.3588 43.5704 19.9976 43.5704V36.3704ZM6.97022 35.6494C5.75979 35.1665 4.84202 34.2533 4.34855 33.022L-2.33473 35.7003C-1.11186 38.7517 1.25144 41.1196 4.30207 42.3368L6.97022 35.6494ZM4.35331 33.0339C3.98248 32.0989 3.72679 30.0098 3.6394 27.1956C3.55625 24.5181 3.62963 21.9125 3.62963 19.9997H-3.57037C-3.57037 21.6333 -3.64454 24.6044 -3.55713 27.419C-3.47397 30.097 -3.24102 33.4154 -2.33949 35.6884L4.35331 33.0339ZM3.62963 19.9997C3.62963 18.0962 3.55901 15.4805 3.6434 12.8038C3.73224 9.98608 3.98765 7.89411 4.35526 6.96324L-2.34144 4.31861C-3.23536 6.58218 -3.4686 9.89911 -3.55302 12.5769C-3.64189 15.3957 -3.57037 18.3622 -3.57037 19.9997H3.62963ZM4.35264 6.96987C4.83293 5.7607 5.74416 4.84403 6.97534 4.35062L4.29696 -2.33266C1.24542 -1.10973 -1.12443 1.25467 -2.33882 4.31197L4.35264 6.96987ZM6.96341 4.35537C7.89887 3.98435 9.98915 3.72817 12.8036 3.64008C15.4804 3.55631 18.0879 3.62899 19.9976 3.62899V-3.57101C18.3636 -3.57101 15.3944 -3.64452 12.5784 -3.55639C9.90002 -3.47257 6.58141 -3.23876 4.30888 -2.33742L6.96341 4.35537ZM19.9976 3.62899C21.9021 3.62899 24.5195 3.55907 27.195 3.64409C30.0115 3.73359 32.1043 3.98939 33.0377 4.35771L35.6804 -2.33976C33.4167 -3.23297 30.102 -3.46717 27.4236 -3.55228C24.6042 -3.64187 21.6395 -3.57101 19.9976 -3.57101V3.62899ZM33.0287 4.35413C34.2334 4.83326 35.1535 5.74671 35.6508 6.98375L42.3312 4.29809C41.1068 1.25241 38.7458 -1.12063 35.6895 -2.33617L33.0287 4.35413ZM35.644 6.96671C36.0142 7.90112 36.2698 9.99161 36.3575 12.8066C36.441 15.4838 36.3683 18.0912 36.3683 19.9997H43.5683C43.5683 18.3671 43.6418 15.3979 43.554 12.5822C43.4706 9.9044 43.2375 6.586 42.338 4.31513L35.644 6.96671ZM36.3683 19.9997C36.3683 21.9107 36.441 24.521 36.3575 27.1992C36.2697 30.0166 36.0139 32.104 35.6452 33.0324L42.3368 35.6898C43.2378 33.4211 43.4706 30.101 43.554 27.4235C43.6418 24.6069 43.5683 21.635 43.5683 19.9997H36.3683Z" fill="#142032" mask="url(#path-2-inside-1_623_5635)"/>
</svg>
